PathFileType	4	(X/Y/Z)	C:\Users\86182\Documents\cortex\Trimmed_M1_H6.trc
DataRate	CameraRate	NumFrames	NumMarkers	Units	OrigDataRate	OrigDataStartFrame	OrigNumFrames
100.00	100.00	       98	2	mm	100.00	381	       951
Frame#	Time	gripper			box			
		X1	Y1	Z1	X2	Y2	Z2	

381	3.800	220.86034	203.62910	286.98770	227.10156	202.41171	135.89102	
382	3.810	220.86034	203.62910	286.98770	227.07159	202.39827	135.89857	
383	3.820	220.86034	203.62910	286.98770	227.16634	202.44153	135.86839	
384	3.830	220.88260	203.64005	287.00278	227.20946	202.46121	135.85466	
385	3.840	220.91177	203.65440	287.02255	227.21666	202.46451	135.85237	
386	3.850	220.91177	203.65440	287.02255	227.21666	202.46451	135.85237	
387	3.860	220.91177	203.65440	287.02255	227.21666	202.46451	135.85237	
388	3.870	220.91177	203.65440	287.02255	227.25186	202.47952	135.84976	
389	3.880	220.91177	203.65440	287.02255	227.21666	202.46451	135.85237	
390	3.890	220.91177	203.65440	287.02255	227.21666	202.46451	135.85237	
391	3.900	220.90504	203.65109	287.01797	227.21666	202.46451	135.85237	
392	3.910	220.88480	203.64113	287.00430	227.21666	202.46451	135.85237	
393	3.920	220.86034	203.62910	286.98770	227.21666	202.46451	135.85237	
394	3.930	220.86034	203.62910	286.98770	227.18077	202.44812	135.86380	
395	3.940	220.86034	203.62910	286.98770	227.15184	202.43491	135.87300	
396	3.950	220.86920	203.63345	286.99371	227.13734	202.42830	135.87764	
397	3.960	220.90045	203.64883	287.01495	227.21666	202.46451	135.85237	
398	3.970	220.91177	203.65440	287.02255	227.21666	202.46451	135.85237	
399	3.980	220.91177	203.65440	287.02255	227.21666	202.46451	135.85237	
400	3.990	220.91177	203.65440	287.02255	227.21666	202.46451	135.85237	
401	4.000	220.91177	203.65440	287.02255	227.21666	202.46451	135.85237	
402	4.010	220.91177	203.65440	287.02255	227.21666	202.46451	135.85237	
403	4.020	220.88705	203.64224	287.00580	227.18077	202.44812	135.86380	
404	4.030	220.87585	203.63673	286.99826	227.15906	202.43820	135.87073	
405	4.040	220.87146	203.63457	286.99521	227.21666	202.46451	135.85237	
406	4.050	220.89153	203.64444	287.00885	227.15184	202.43491	135.87300	
407	4.060	220.88705	203.64224	287.00580	227.21666	202.46451	135.85237	
408	4.070	220.90504	203.65109	287.01797	227.21666	202.46451	135.85237	
409	4.080	220.91177	203.65440	287.02255	227.21666	202.46451	135.85237	
410	4.090	220.91177	203.65440	287.02255	227.21666	202.46451	135.85237	
411	4.100	220.91177	203.65440	287.02255	227.21666	202.46451	135.85237	
412	4.110	220.91177	203.65440	287.02255	227.21666	202.46451	135.85237	
413	4.120	220.91177	203.65440	287.02255	227.21666	202.46451	135.85237	
414	4.130	220.91177	203.65440	287.02255	227.21666	202.46451	135.85237	
415	4.140	220.90952	203.65329	287.02106	227.21666	202.46451	135.85237	
416	4.150	220.88480	203.64113	287.00430	227.21666	202.46451	135.85237	
417	4.160	220.87146	203.63457	286.99521	227.21666	202.46451	135.85237	
418	4.170	220.86034	203.62910	286.98770	227.20232	202.45796	135.85693	
419	4.180	220.86034	203.62910	286.98770	227.18855	202.45143	135.86330	
420	4.190	220.86920	203.63345	286.99371	227.21666	202.46451	135.85237	
421	4.200	220.91177	203.65440	287.02255	227.21666	202.46451	135.85237	
422	4.210	220.91177	203.65440	287.02255	227.21666	202.46451	135.85237	
423	4.220	220.91177	203.65440	287.02255	227.21666	202.46451	135.85237	
424	4.230	220.91177	203.65440	287.02255	227.21666	202.46451	135.85237	
425	4.240	220.91177	203.65440	287.02255	227.21666	202.46451	135.85237	
426	4.250	220.91177	203.65440	287.02255	227.21666	202.46451	135.85237	
427	4.260	220.91177	203.65440	287.02255	227.21666	202.46451	135.85237	
428	4.270	220.90279	203.64998	287.01645	227.21666	202.46451	135.85237	
429	4.280	220.89372	203.64552	287.01038	227.21666	202.46451	135.85237	
430	4.290	220.90045	203.64883	287.01495	227.19511	202.45467	135.85922	
431	4.300	220.89153	203.64444	287.00885	227.20232	202.45796	135.85693	
432	4.310	220.91177	203.65440	287.02255	227.21666	202.46451	135.85237	
433	4.320	220.91177	203.65440	287.02255	227.21666	202.46451	135.85237	
434	4.330	220.91177	203.65440	287.02255	227.21666	202.46451	135.85237	
435	4.340	220.91177	203.65440	287.02255	227.21666	202.46451	135.85237	
436	4.350	220.90732	203.65221	287.01947	227.21666	202.46451	135.85237	
437	4.360	220.91177	203.65440	287.02255	227.21666	202.46451	135.85237	
438	4.370	220.87146	203.63457	286.99521	227.21666	202.46451	135.85237	
439	4.380	220.89598	203.64664	287.01187	227.21666	202.46451	135.85237	
440	4.390	220.89372	203.64552	287.01038	227.21666	202.46451	135.85237	
441	4.400	220.86481	203.63130	286.99069	227.20232	202.45796	135.85693	
442	4.410	220.87366	203.63565	286.99673	227.14456	202.43158	135.87534	
443	4.420	220.89153	203.64444	287.00885	227.21666	202.46451	135.85237	
444	4.430	220.89598	203.64664	287.01187	227.21666	202.46451	135.85237	
445	4.440	220.88705	203.64224	287.00580	227.21002	202.46123	135.85648	
446	4.450	220.91177	203.65440	287.02255	227.21666	202.46451	135.85237	
447	4.460	220.90952	203.65329	287.02106	227.21666	202.46451	135.85237	
448	4.470	220.91177	203.65440	287.02255	227.21666	202.46451	135.85237	
449	4.480	220.90504	203.65109	287.01797	227.21666	202.46451	135.85237	
450	4.490	220.91177	203.65440	287.02255	227.21666	202.46451	135.85237	
451	4.500	220.91177	203.65440	287.02255	227.21666	202.46451	135.85237	
452	4.510	220.88260	203.64005	287.00278	227.21666	202.46451	135.85237	
453	4.520	220.88480	203.64113	287.00430	227.20946	202.46121	135.85466	
454	4.530	220.87366	203.63565	286.99673	227.21666	202.46451	135.85237	
455	4.540	220.91177	203.65440	287.02255	227.21666	202.46451	135.85237	
456	4.550	220.90045	203.64883	287.01495	227.21666	202.46451	135.85237	
457	4.560	220.91177	203.65440	287.02255	227.21666	202.46451	135.85237	
458	4.570	220.91177	203.65440	287.02255	227.21666	202.46451	135.85237	
459	4.580	220.90732	203.65221	287.01947	227.21666	202.46451	135.85237	
460	4.590	220.89825	203.64775	287.01340	227.21666	202.46451	135.85237	
461	4.600	220.90952	203.65329	287.02106	227.21666	202.46451	135.85237	
462	4.610	220.90504	203.65109	287.01797	227.20946	202.46121	135.85466	
463	4.620	220.90952	203.65329	287.02106	227.18797	202.45142	135.86150	
464	4.630	220.90045	203.64883	287.01495	227.15906	202.43820	135.87073	
465	4.640	220.91177	203.65440	287.02255	227.19511	202.45467	135.85922	
466	4.650	220.90279	203.64998	287.01645	227.21666	202.46451	135.85237	
467	4.660	220.89153	203.64444	287.00885	227.21666	202.46451	135.85237	
468	4.670	220.91177	203.65440	287.02255	227.21666	202.46451	135.85237	
469	4.680	220.91177	203.65440	287.02255	227.21666	202.46451	135.85237	
470	4.690	220.90045	203.64883	287.01495	227.21666	202.46451	135.85237	
471	4.700	220.91177	203.65440	287.02255	227.21666	202.46451	135.85237	
472	4.710	220.90952	203.65329	287.02106	227.21666	202.46451	135.85237	
473	4.720	220.90279	203.64998	287.01645	227.21666	202.46451	135.85237	
474	4.730	220.91177	203.65440	287.02255	227.20232	202.45796	135.85693	
475	4.740	220.89372	203.64552	287.01038	227.21666	202.46451	135.85237	
476	4.750	220.89825	203.64775	287.01340	227.21666	202.46451	135.85237	
477	4.760	220.90045	203.64883	287.01495	227.21666	202.46451	135.85237	
478	4.770	220.88260	203.64005	287.00278	227.21666	202.46451	135.85237	
